<svg width="40" height="40" viewBox="0 0 40 40" fill="none" xmlns="http://www.w3.org/2000/svg">
<g clip-path="url(#clip0_46_23)">
<path d="M20 0C8.95453 0 0 8.95453 0 20C0 31.0455 8.95453 40 20 40C31.0455 40 40 31.0455 40 20C40 8.95453 31.0455 0 20 0ZM20 36.6666C10.7955 36.6666 3.33336 29.2045 3.33336 20C3.33336 10.7955 10.7955 3.33336 20 3.33336C29.2045 3.33336 36.6666 10.7955 36.6666 20C36.6666 29.2045 29.2045 36.6666 20 36.6666Z" fill="#C9C9C9" fill-opacity="0.7"/>
<path d="M27.1549 15.4881L20 22.643L12.8452 15.4881C12.1943 14.8373 11.139 14.8373 10.4881 15.4881C9.83729 16.139 9.83729 17.1943 10.4881 17.8451L18.8215 26.1785C19.4724 26.8294 20.5277 26.8294 21.1785 26.1785L29.5119 17.8451C30.1628 17.1943 30.1628 16.139 29.5119 15.4881C28.861 14.8373 27.8057 14.8373 27.1549 15.4881Z" fill="#C9C9C9" fill-opacity="0.7"/>
</g>
<defs>
<clipPath id="clip0_46_23">
<rect width="40" height="40" fill="white"/>
</clipPath>
</defs>
</svg>
