<svg width="29" height="29" viewBox="0 0 29 29" fill="none" xmlns="http://www.w3.org/2000/svg">
<g clip-path="url(#clip0_46_20)">
<path d="M22.0048 2.2561C23.2623 2.2561 24.3376 2.70259 25.2305 3.59555C26.1235 4.48852 26.57 5.56377 26.57 6.82132V22.0387C26.57 23.2963 26.1235 24.3715 25.2305 25.2645C24.3376 26.1574 23.2623 26.6039 22.0048 26.6039H19.0247V17.1723H22.1791L22.6547 13.4948H19.0247V11.1488C19.0247 10.557 19.1489 10.1131 19.3972 9.81724C19.6455 9.52135 20.129 9.3734 20.8476 9.3734L22.7815 9.35755V6.0763C22.1157 5.98119 21.1752 5.93364 19.9599 5.93364C18.5227 5.93364 17.3735 6.35634 16.5122 7.20176C15.651 8.04717 15.2204 9.24131 15.2204 10.7842V13.4948H12.0501V17.1723H15.2204V26.6039H6.78738C5.52984 26.6039 4.45458 26.1574 3.56162 25.2645C2.66865 24.3715 2.22217 23.2963 2.22217 22.0387V6.82132C2.22217 5.56377 2.66865 4.48852 3.56162 3.59555C4.45458 2.70259 5.52984 2.2561 6.78738 2.2561H22.0048Z" fill="#C9C9C9"/>
</g>
<defs>
<clipPath id="clip0_46_20">
<rect width="28.4058" height="28.4058" fill="white" transform="translate(0.193359 0.227112)"/>
</clipPath>
</defs>
</svg>
