<svg width="31" height="31" viewBox="0 0 31 31" fill="none" xmlns="http://www.w3.org/2000/svg">
<g clip-path="url(#clip0_46_14)">
<path d="M22.2335 7.22797C21.9292 7.22797 21.6317 7.31821 21.3787 7.48728C21.1256 7.65635 20.9284 7.89665 20.812 8.1778C20.6955 8.45895 20.665 8.76832 20.7244 9.06679C20.7838 9.36526 20.9303 9.63942 21.1455 9.8546C21.3607 10.0698 21.6349 10.2163 21.9333 10.2757C22.2318 10.3351 22.5412 10.3046 22.8223 10.1881C23.1035 10.0717 23.3438 9.87447 23.5128 9.62144C23.6819 9.36841 23.7721 9.07093 23.7721 8.76661C23.7721 8.35854 23.61 7.96718 23.3215 7.67863C23.0329 7.39007 22.6416 7.22797 22.2335 7.22797ZM28.1316 10.3309C28.1067 9.26706 27.9075 8.2145 27.5418 7.21515C27.2158 6.36008 26.7084 5.58582 26.0545 4.94564C25.4195 4.28842 24.6435 3.78419 23.785 3.4711C22.7882 3.09434 21.7345 2.89053 20.6692 2.86847C19.3101 2.79153 18.8741 2.79153 15.3865 2.79153C11.8989 2.79153 11.463 2.79153 10.1038 2.86847C9.03851 2.89053 7.98478 3.09434 6.98806 3.4711C6.13114 3.78736 5.35573 4.29115 4.71856 4.94564C4.06133 5.58056 3.55711 6.35663 3.24402 7.21515C2.86726 8.21186 2.66345 9.26559 2.64139 10.3309C2.56445 11.69 2.56445 12.126 2.56445 15.6136C2.56445 19.1012 2.56445 19.5371 2.64139 20.8963C2.66345 21.9616 2.86726 23.0153 3.24402 24.012C3.55711 24.8706 4.06133 25.6466 4.71856 26.2816C5.35573 26.936 6.13114 27.4398 6.98806 27.7561C7.98478 28.1329 9.03851 28.3367 10.1038 28.3587C11.463 28.4357 11.8989 28.4357 15.3865 28.4357C18.8741 28.4357 19.3101 28.4357 20.6692 28.3587C21.7345 28.3367 22.7882 28.1329 23.785 27.7561C24.6435 27.443 25.4195 26.9388 26.0545 26.2816C26.7113 25.6438 27.2191 24.8688 27.5418 24.012C27.9075 23.0127 28.1067 21.9601 28.1316 20.8963C28.1316 19.5371 28.2086 19.1012 28.2086 15.6136C28.2086 12.126 28.2086 11.69 28.1316 10.3309ZM25.8237 20.7424C25.8143 21.5563 25.6669 22.3627 25.3877 23.1273C25.183 23.6853 24.8542 24.1895 24.4261 24.6019C24.0102 25.0256 23.507 25.3538 22.9515 25.5635C22.187 25.8427 21.3805 25.9901 20.5666 25.9995C19.2844 26.0636 18.81 26.0764 15.4378 26.0764C12.0656 26.0764 11.5912 26.0764 10.309 25.9995C9.46386 26.0153 8.62236 25.8852 7.8215 25.6148C7.29039 25.3944 6.81029 25.067 6.41107 24.6531C5.98549 24.2412 5.66078 23.7366 5.46224 23.1786C5.1492 22.4031 4.97557 21.5783 4.94936 20.7424C4.94936 19.4602 4.87242 18.9858 4.87242 15.6136C4.87242 12.2414 4.87242 11.767 4.94936 10.4848C4.9551 9.65269 5.107 8.82809 5.39813 8.04858C5.62386 7.50737 5.97033 7.02494 6.41107 6.63815C6.80062 6.19729 7.28206 5.84715 7.8215 5.61239C8.60307 5.33036 9.42682 5.18295 10.2577 5.17644C11.5399 5.17644 12.0143 5.09951 15.3865 5.09951C18.7587 5.09951 19.2331 5.09951 20.5153 5.17644C21.3292 5.18577 22.1357 5.33318 22.9002 5.61239C23.4829 5.82863 24.0059 6.18021 24.4261 6.63815C24.8462 7.03202 25.1746 7.51356 25.3877 8.04858C25.6727 8.82936 25.8202 9.65362 25.8237 10.4848C25.8878 11.767 25.9006 12.2414 25.9006 15.6136C25.9006 18.9858 25.8878 19.4602 25.8237 20.7424ZM15.3865 9.03588C14.0861 9.03841 12.8156 9.42634 11.7356 10.1507C10.6556 10.875 9.81453 11.9031 9.31865 13.1053C8.82276 14.3074 8.69433 15.6296 8.94958 16.9047C9.20482 18.1798 9.8323 19.3506 10.7527 20.2693C11.6731 21.1879 12.8452 21.8131 14.1208 22.0658C15.3964 22.3186 16.7183 22.1876 17.9195 21.6894C19.1206 21.1912 20.1472 20.3481 20.8694 19.2666C21.5916 18.1852 21.9771 16.914 21.9771 15.6136C21.9788 14.7482 21.8093 13.8911 21.4786 13.0914C21.1478 12.2918 20.6622 11.5654 20.0497 10.9541C19.4372 10.3428 18.7099 9.85864 17.9096 9.52944C17.1093 9.20023 16.2519 9.0325 15.3865 9.03588ZM15.3865 19.8833C14.542 19.8833 13.7165 19.6329 13.0144 19.1638C12.3122 18.6946 11.7649 18.0278 11.4418 17.2476C11.1186 16.4674 11.0341 15.6089 11.1988 14.7806C11.3636 13.9524 11.7702 13.1916 12.3673 12.5944C12.9645 11.9973 13.7253 11.5906 14.5535 11.4259C15.3818 11.2611 16.2403 11.3457 17.0205 11.6689C17.8007 11.992 18.4675 12.5393 18.9367 13.2415C19.4058 13.9436 19.6563 14.7691 19.6563 15.6136C19.6563 16.1743 19.5458 16.7295 19.3312 17.2476C19.1167 17.7656 18.8022 18.2363 18.4057 18.6328C18.0092 19.0292 17.5385 19.3438 17.0205 19.5583C16.5024 19.7729 15.9472 19.8833 15.3865 19.8833Z" fill="#C9C9C9"/>
</g>
<defs>
<clipPath id="clip0_46_14">
<rect width="30.7729" height="30.7729" fill="white" transform="translate(0 0.227112)"/>
</clipPath>
</defs>
</svg>
