<svg width="28" height="29" viewBox="0 0 28 29" fill="none" xmlns="http://www.w3.org/2000/svg">
<g clip-path="url(#clip0_46_11)">
<path d="M24.4718 2.05222H4.05514C3.45349 2.05222 2.87648 2.29122 2.45105 2.71665C2.02563 3.14208 1.78662 3.71909 1.78662 4.32073V24.7374C1.78662 25.339 2.02563 25.9161 2.45105 26.3415C2.87648 26.7669 3.45349 27.0059 4.05514 27.0059H24.4718C25.0735 27.0059 25.6505 26.7669 26.0759 26.3415C26.5013 25.9161 26.7403 25.339 26.7403 24.7374V4.32073C26.7403 3.71909 26.5013 3.14208 26.0759 2.71665C25.6505 2.29122 25.0735 2.05222 24.4718 2.05222ZM9.72644 23.036C9.72644 23.1864 9.66668 23.3307 9.56033 23.437C9.45397 23.5434 9.30972 23.6031 9.15931 23.6031H5.75653C5.60612 23.6031 5.46186 23.5434 5.35551 23.437C5.24915 23.3307 5.1894 23.1864 5.1894 23.036V11.6934C5.1894 11.543 5.24915 11.3988 5.35551 11.2924C5.46186 11.186 5.60612 11.1263 5.75653 11.1263H9.15931C9.30972 11.1263 9.45397 11.186 9.56033 11.2924C9.66668 11.3988 9.72644 11.543 9.72644 11.6934V23.036ZM7.45792 9.99203C7.00925 9.99203 6.57065 9.85898 6.1976 9.60972C5.82454 9.36045 5.53378 9.00615 5.36208 8.59164C5.19038 8.17712 5.14546 7.721 5.23299 7.28095C5.32052 6.8409 5.53657 6.43668 5.85383 6.11943C6.17109 5.80217 6.5753 5.58611 7.01535 5.49858C7.4554 5.41105 7.91152 5.45598 8.32604 5.62767C8.74056 5.79937 9.09485 6.09013 9.34412 6.46319C9.59339 6.83625 9.72644 7.27484 9.72644 7.72351C9.72644 8.32516 9.48743 8.90217 9.062 9.3276C8.63657 9.75303 8.05957 9.99203 7.45792 9.99203ZM23.3375 23.036C23.3375 23.1864 23.2778 23.3307 23.1714 23.437C23.0651 23.5434 22.9208 23.6031 22.7704 23.6031H19.3676C19.2172 23.6031 19.073 23.5434 18.9666 23.437C18.8603 23.3307 18.8005 23.1864 18.8005 23.036V16.7976C18.8005 15.3798 18.1653 14.5291 17.0991 14.5291C16.0329 14.5291 15.3977 15.3798 15.3977 16.7976V23.036C15.3977 23.1864 15.338 23.3307 15.2316 23.437C15.1253 23.5434 14.981 23.6031 14.8306 23.6031H11.4278C11.2774 23.6031 11.1332 23.5434 11.0268 23.437C10.9204 23.3307 10.8607 23.1864 10.8607 23.036V11.6934C10.8607 11.543 10.9204 11.3988 11.0268 11.2924C11.1332 11.186 11.2774 11.1263 11.4278 11.1263H14.8306C14.981 11.1263 15.1253 11.186 15.2316 11.2924C15.338 11.3988 15.3977 11.543 15.3977 11.6934V12.045C16.205 11.4139 17.2094 11.0885 18.2334 11.1263C21.3299 11.1263 23.3375 13.3948 23.3375 16.7976V23.036Z" fill="#C9C9C9"/>
</g>
<defs>
<clipPath id="clip0_46_11">
<rect width="27.2222" height="27.2222" fill="white" transform="translate(0.652344 0.917969)"/>
</clipPath>
</defs>
</svg>
