<svg width="27" height="23" viewBox="0 0 27 23" fill="none" xmlns="http://www.w3.org/2000/svg">
<path d="M27 2.72263C25.9844 3.18706 24.9102 3.49572 23.8106 3.6391C24.9694 2.91836 25.8358 1.77708 26.2457 0.43146C25.1607 1.10614 23.9735 1.58125 22.7357 1.83624C21.9767 0.986612 20.9916 0.395932 19.9083 0.140941C18.8249 -0.11405 17.6935 -0.0215654 16.661 0.40638C15.6284 0.834325 14.7425 1.57795 14.1183 2.54064C13.4941 3.50333 13.1605 4.64058 13.1608 5.80465C13.1608 6.26465 13.1979 6.70696 13.2891 7.12804C11.087 7.01485 8.93254 6.41565 6.96651 5.36962C5.00048 4.32359 3.26716 2.85429 1.87987 1.05777C1.16913 2.33491 0.949403 3.84806 1.26543 5.2891C1.58145 6.73013 2.40947 7.99071 3.58087 8.81413C2.70465 8.78949 1.84692 8.54435 1.08 8.09936V8.16305C1.08147 9.50313 1.52325 10.8018 2.33097 11.8403C3.1387 12.8789 4.26305 13.594 5.51475 13.8653C5.04121 13.9962 4.55319 14.0604 4.0635 14.0564C3.71181 14.0629 3.36046 14.0297 3.01556 13.9573C3.37321 15.1091 4.06264 16.1164 4.98891 16.8404C5.91519 17.5644 7.03276 17.9695 8.18775 18C6.22846 19.6066 3.81202 20.4781 1.32469 20.4752C0.87075 20.4752 0.435375 20.454 0 20.3956C2.53105 22.1056 5.48045 23.0102 8.4915 22.9999C18.6772 22.9999 24.246 14.1537 24.246 6.48581C24.246 6.22927 24.2376 5.98157 24.2257 5.73565C25.3175 4.91646 26.2576 3.89543 27 2.72263Z" fill="#C9C9C9"/>
</svg>
