<svg width="36" height="35" viewBox="0 0 36 35" fill="none" xmlns="http://www.w3.org/2000/svg">
<g clip-path="url(#clip0_46_17)">
<path d="M33.7696 14.1263C33.8416 12.0439 33.3862 9.97717 32.4458 8.1179C31.8077 7.35499 30.9222 6.84015 29.9435 6.66309C25.8955 6.29578 21.8308 6.14524 17.7667 6.2121C13.7175 6.1422 9.66736 6.28789 5.6336 6.64854C4.8361 6.79361 4.09807 7.16768 3.50957 7.7251C2.20025 8.93259 2.05476 10.9984 1.90928 12.7442C1.69821 15.883 1.69821 19.0325 1.90928 22.1714C1.95137 23.154 2.09767 24.1293 2.34573 25.081C2.52114 25.8158 2.87604 26.4956 3.37864 27.0595C3.97114 27.6465 4.72636 28.0418 5.54631 28.1943C8.68276 28.5814 11.843 28.7419 15.0026 28.6744C20.0944 28.7471 24.5607 28.6744 29.8416 28.267C30.6817 28.1239 31.4582 27.7281 32.0675 27.1323C32.4748 26.7248 32.779 26.2261 32.9549 25.6775C33.4752 24.081 33.7308 22.4101 33.7114 20.7311C33.7696 19.9164 33.7696 14.9992 33.7696 14.1263ZM14.4788 21.604V12.5987L23.0913 17.1232C20.6763 18.4616 17.4903 19.9746 14.4788 21.604Z" fill="#C9C9C9"/>
</g>
<defs>
<clipPath id="clip0_46_17">
<rect width="34.9155" height="34.9155" fill="white" transform="translate(0.309082 6.10352e-05)"/>
</clipPath>
</defs>
</svg>
